{"title":"Secret State S01","uid":10723714,"size":1290375120,"categoryP":"video","categoryS":"tv_shows","magnet":"?xt=urn:btih:244fb057d7a4379fbf2e74b69cfbba2366be9734&amp;dn=Secret+State+S01&amp;tr=udp%3A%2F%2Ftracker.openbittorrent.com%3A80&amp;tr=udp%3A%2F%2Fopen.demonii.com%3A1337&amp;tr=udp%3A%2F%2Ftracker.coppersurfer.tk%3A6969&amp;tr=udp%3A%2F%2Fexodus.desync.com%3A6969","seeders":3,"leechers":2,"uploader":"RedBaron58","files":4,"time":1407523385,"description":"Secret State (2012) S01 - Triller Drama x264 mp4  \n &lt;a href=&quot;\nhttp://www.imdb.com/title/tt1960029/&quot; rel=&quot;nofollow&quot; target=&quot;_NEW&quot;&gt;\nhttp://www.imdb.com/title/tt1960029/&lt;/a&gt;\n\nTrailer:\n\nUploader Note:\nThe Black Borders, Top and Bottom are intentional and are on the DVD and are as originaly transmitted.\nRemoval of these borders makes the aspect ratio wrong when played on a standard 16:9 TV.\nPeople who use VLC can use these setting for widescreen viewing.  Video &gt; Crop &gt; 2.35:1\n\n\nThank you for your kind comments and thumbs ups on my other torrents, your feedback is welcome.\n\n\nAbout the Series:\nIn the run up to a general election, a devastating industrial accident on Teesside leaves 19 people dead and \nraises questions about the safety procedures of a US petrochemical company, PetroFex. \nThe British Prime Minister claims to have secured a compensation package from them, but on his return from \nPetroFex HQ, his plane crashes in the Atlantic under mysterious circumstances. \nDeputy Prime Minister Tom Dawkins (Gabriel Byrne) takes command, and during his quest to find the truth \nand justice for the victims, he uncovers a conspiracy at the heart of the political system\n\n\nI hope you enjoy.\n\n\nTechnical:\n\nGeneral\nComplete name                            : H:Secret State S01Secret State S01E01 x264 RB58.mp4\nFormat                                   : MPEG-4\nFormat profile                           : Base Media / Version 2\nCodec ID                                 : mp42\nFile size                                : 298 MiB\nDuration                                 : 41mn 35s\nOverall bit rate mode                    : Variable\nOverall bit rate                         : 1 000 Kbps\nEncoded date                             : UTC 2014-08-02 19:29:26\nTagged date                              : UTC 2014-08-02 19:38:20\nWriting application                      : HandBrake 0.9.8 2012071700\n\nVideo\nID                                       : 1\nFormat                                   : AVC\nFormat/Info                              : Advanced Video Codec\nFormat profile                           : &lt;a class=&quot;__cf_email__&quot; href=&quot;/cdn-cgi/l/email-protection&quot; data-cfemail=&quot;6f220e06012f235c415f&quot;&gt;[email&amp;#160;protected]&lt;/a&gt;&lt;script cf-hash='f9e31' type=&quot;text/javascript&quot;&gt;\n/* &lt;![CDATA[ */!function(){try{var t=&quot;currentScript&quot;in document?document.currentScript:function(){for(var t=document.getElementsByTagName(&quot;script&quot;),e=t.length;e--;)if(t[e].getAttribute(&quot;cf-hash&quot;))return t[e]}();if(t&amp;&amp;t.previousSibling){var e,r,n,i,c=t.previousSibling,a=c.getAttribute(&quot;data-cfemail&quot;);if(a){for(e=&quot;&quot;,r=parseInt(a.substr(0,2),16),n=2;a.length-n;n+=2)i=parseInt(a.substr(n,2),16)^r,e+=String.fromCharCode(i);e=document.createTextNode(e),c.parentNode.replaceChild(e,c)}}}catch(u){}}();/* ]]&gt; */&lt;/script&gt;\nFormat settings, CABAC                   : Yes\nFormat settings, ReFrames                : 4 frames\nCodec ID                                 : avc1\nCodec ID/Info                            : Advanced Video Coding\nDuration                                 : 41mn 35s\nBit rate mode                            : Variable\nBit rate                                 : 900 Kbps\nWidth                                    : 720 pixels\nHeight                                   : 576 pixels\nDisplay aspect ratio                     : 16:9\nFrame rate mode                          : Constant\nFrame rate                               : 25.000 fps\nStandard                                 : PAL\nColor space                              : YUV\nChroma subsampling                       : 4:2:0\nBit depth                                : 8 bits\nScan type                                : Progressive\nBits/(Pixel*Frame)                       : 0.087\nStream size                              : 268 MiB (90%)\nWriting library                          : x264 core 120\nEncoding settings                        : cabac=1 / ref=1 / deblock=1:0:0\nEncoded date                             : UTC 2014-08-02 19:29:26\nTagged date                              : UTC 2014-08-02 19:38:20\nColor primaries                          : BT.601 NTSC\nTransfer characteristics                 : BT.709\nMatrix coefficients                      : BT.601\n\nAudio\nID                                       : 2\nFormat                                   : AAC\nFormat/Info                              : Advanced Audio Codec\nFormat profile                           : LC\nCodec ID                                 : 40\nDuration                                 : 41mn 27s\nBit rate mode                            : Variable\nBit rate                                 : 96.0 Kbps\nMaximum bit rate                         : 176 Kbps\nChannel(s)                               : 2 channels\nChannel positions                        : Front: L R\nSampling rate                            : 48.0 KHz\nCompression mode                         : Lossy\nDelay relative to video                  : 80ms\nStream size                              : 28.5 MiB (10%)\nLanguage                                 : English\nEncoded date                             : UTC 2014-08-02 19:29:26\nTagged date                              : UTC 2014-08-02 19:38:18","torrent":{"xt":"urn:btih:244fb057d7a4379fbf2e74b69cfbba2366be9734","amp;dn":"Secret+State+S01","amp;tr":["udp%3A%2F%2Ftracker.openbittorrent.com%3A80","udp%3A%2F%2Fopen.demonii.com%3A1337","udp%3A%2F%2Ftracker.coppersurfer.tk%3A6969","udp%3A%2F%2Fexodus.desync.com%3A6969"],"infoHash":"244fb057d7a4379fbf2e74b69cfbba2366be9734","infoHashBuffer":{"type":"Buffer","data":[36,79,176,87,215,164,55,159,191,46,116,182,156,251,186,35,102,190,151,52]},"announce":[],"urlList":[]}}